<svg width="189" height="189" viewBox="0 0 189 189" fill="none" xmlns="http://www.w3.org/2000/svg">
<path d="M12.6002 81.8999C5.65247 81.8999 0 87.5528 0 94.5001C0 101.447 5.65247 107.1 12.6002 107.1C19.5478 107.1 25.2003 101.448 25.2003 94.5001C25.2003 87.5524 19.5474 81.8999 12.6002 81.8999ZM12.6002 100.8C9.12562 100.8 6.30031 97.9746 6.30031 94.5001C6.30031 91.0255 9.12608 88.2002 12.6002 88.2002C16.0747 88.2002 18.9 91.026 18.9 94.5001C18.9 97.9746 16.0742 100.8 12.6002 100.8Z" fill="#FFCB3F"/>
<path d="M53.5499 81.8999C46.6026 81.8999 40.9497 87.5524 40.9497 94.5001C40.9497 101.448 46.6022 107.1 53.5499 107.1C60.4975 107.1 66.15 101.448 66.15 94.5001C66.15 87.5524 60.4975 81.8999 53.5499 81.8999ZM53.5499 100.8C50.0753 100.8 47.25 97.9746 47.25 94.5001C47.25 91.0255 50.0758 88.2002 53.5499 88.2002C57.0244 88.2002 59.8497 91.026 59.8497 94.5001C59.8502 97.9746 57.0244 100.8 53.5499 100.8Z" fill="#E5E5E5"/>
<path d="M94.5 81.8999C87.5528 81.8999 81.8998 87.5524 81.8998 94.5001C81.8998 101.448 87.5523 107.1 94.5 107.1C101.448 107.1 107.1 101.448 107.1 94.5001C107.1 87.5524 101.447 81.8999 94.5 81.8999ZM94.5 100.8C91.0255 100.8 88.2002 97.9746 88.2002 94.5001C88.2002 91.0255 91.0259 88.2002 94.5 88.2002C97.9745 88.2002 100.8 91.026 100.8 94.5001C100.8 97.9746 97.9745 100.8 94.5 100.8Z" fill="#E5E5E5"/>
<path d="M135.45 81.8999C128.503 81.8999 122.85 87.5524 122.85 94.5001C122.85 101.448 128.502 107.1 135.45 107.1C142.397 107.1 148.05 101.448 148.05 94.5001C148.05 87.5524 142.397 81.8999 135.45 81.8999ZM135.45 100.8C131.976 100.8 129.15 97.9746 129.15 94.5001C129.15 91.0255 131.976 88.2002 135.45 88.2002C138.925 88.2002 141.75 91.026 141.75 94.5001C141.75 97.9746 138.924 100.8 135.45 100.8Z" fill="#E5E5E5"/>
<path d="M176.4 81.8999C169.453 81.8999 163.8 87.5524 163.8 94.5001C163.8 101.448 169.452 107.1 176.4 107.1C183.348 107.1 189 101.447 189 94.5001C189 87.5528 183.348 81.8999 176.4 81.8999ZM176.4 100.8C172.925 100.8 170.1 97.9746 170.1 94.5001C170.1 91.0255 172.925 88.2002 176.4 88.2002C179.874 88.2002 182.7 91.026 182.7 94.5001C182.7 97.9746 179.874 100.8 176.4 100.8Z" fill="#E5E5E5"/>
</svg>
