<svg width="57" height="57" viewBox="0 0 57 57" fill="none" xmlns="http://www.w3.org/2000/svg">
<path d="M28.5 0C44.2154 0 57 12.7846 57 28.5C57 44.2154 44.2154 57 28.5 57C12.7846 57 0 44.2154 0 28.5C0 12.7846 12.7846 0 28.5 0ZM19.6958 30.1792L31.5709 42.0541C32.034 42.5172 32.642 42.75 33.25 42.75C33.858 42.75 34.4661 42.5172 34.9292 42.0541C35.8578 41.1255 35.8578 39.6245 34.9292 38.6959L24.7332 28.5L34.9291 18.3041C35.8577 17.3755 35.8577 15.8745 34.9291 14.9459C34.0005 14.0173 32.4995 14.0173 31.5709 14.9459L19.6958 26.8209C18.7673 27.7495 18.7673 29.2505 19.6958 30.1792Z" fill="#FFCB3F"/>
</svg>
