<svg width="75" height="75" viewBox="0 0 75 75" fill="none" xmlns="http://www.w3.org/2000/svg">
<path fill-rule="evenodd" clip-rule="evenodd" d="M63.1783 5.41306H72.8027C74.0164 5.41306 75 6.39668 75 7.61032C75 17.4557 72.4274 26.7443 67.7553 33.7658C63.1365 40.7072 56.9847 44.6886 50.3397 45.076C48.8331 46.7154 47.2401 48.0526 45.5812 49.0717V58.8375H49.2674C53.7237 58.8375 57.3486 62.463 57.3486 66.9188V70.6049H57.5048C58.7185 70.6049 59.7021 71.5891 59.7021 72.8022C59.7021 74.0158 58.7185 74.9994 57.5048 74.9994H17.4952C16.2815 74.9994 15.2979 74.0158 15.2979 72.8022C15.2979 71.5891 16.2815 70.6049 17.4952 70.6049H17.6514V66.9188C17.6514 62.463 21.2763 58.8375 25.7326 58.8375H29.4188V49.0717C27.7599 48.052 26.1675 46.7154 24.6609 45.076C18.0153 44.6886 11.8635 40.7072 7.24525 33.7658C2.5732 26.7443 0 17.4557 0 7.61032C0 6.39668 0.98362 5.41306 2.19727 5.41306H11.8217C11.7868 4.34704 11.7674 3.27473 11.7674 2.19727C11.7674 0.98362 12.7516 0 13.9647 0H61.0353C62.2484 0 63.2326 0.98362 63.2326 2.19727C63.2326 3.27473 63.2132 4.34704 63.1783 5.41306ZM4.44088 9.80759C4.78592 17.9655 7.05013 25.5404 10.9039 31.3316C13.6906 35.5202 17.0729 38.4052 20.7275 39.7854C20.0918 38.7428 19.479 37.6356 18.8931 36.4637C15.2138 29.1058 12.8597 19.836 12.0672 9.80759H4.44088ZM52.9541 70.6055V66.9188C52.9541 64.8863 51.3004 63.232 49.2674 63.232H25.7326C23.6996 63.232 22.0459 64.8863 22.0459 66.9188V70.6055H52.9541ZM33.8133 50.9811V58.8375H41.1867V50.9811C39.9788 51.2993 38.748 51.4647 37.5 51.4647C36.252 51.4647 35.0212 51.2993 33.8133 50.9811ZM42.2625 45.8977C42.3534 45.8433 42.4484 45.7941 42.5474 45.7535C44.2703 44.842 45.9377 43.4669 47.5142 41.6588C47.5965 41.5403 47.691 41.4305 47.7951 41.3309C49.3595 39.473 50.8318 37.1876 52.1765 34.4982C56.214 26.4233 58.5463 15.8043 58.8123 4.39453H16.1877C16.4532 15.8043 18.7855 26.4227 22.8235 34.4982C24.1682 37.1876 25.6405 39.473 27.2055 41.3309C27.309 41.4305 27.4023 41.5398 27.4853 41.6582C29.0617 43.4658 30.7285 44.8414 32.4514 45.7523C32.5516 45.7941 32.6471 45.8433 32.7393 45.8988C34.2916 46.6702 35.887 47.0701 37.5 47.0701C39.1136 47.0701 40.7095 46.6702 42.2625 45.8977ZM54.2725 39.7854C57.9271 38.4052 61.3094 35.5202 64.0961 31.3316C67.9499 25.5404 70.2141 17.9655 70.5591 9.80759H62.9328C62.1397 19.836 59.7862 29.1058 56.1069 36.4637C55.521 37.6356 54.9082 38.7428 54.2725 39.7854ZM32.79 40.0655H32.7966C32.8892 40.0656 32.9798 40.0387 33.0573 39.988C33.1348 39.9374 33.1957 39.8652 33.2328 39.7804L37.3359 30.4808C37.3904 30.4727 37.4451 30.4658 37.5 30.4602C37.555 30.4657 37.6097 30.4724 37.6643 30.4803L41.7686 39.7804C41.8055 39.865 41.8663 39.937 41.9435 39.9877C42.0207 40.0383 42.111 40.0653 42.2033 40.0655H42.2085C42.3018 40.0642 42.3926 40.0355 42.4697 39.9829C42.5467 39.9304 42.6066 39.8563 42.6418 39.77L44.1721 36.0215L47.8502 37.7C47.9378 37.74 48.0356 37.7525 48.1305 37.7356C48.2253 37.7188 48.3129 37.6735 48.3814 37.6058C48.45 37.5381 48.4963 37.4511 48.5143 37.3564C48.5322 37.2618 48.521 37.1639 48.482 37.0757L44.7307 28.5852C45.3452 28.4962 45.954 28.3639 46.396 27.9223C46.9047 27.414 47.0027 26.6833 47.0976 25.9763L47.0981 25.9721C47.1242 25.5467 47.226 25.1293 47.3989 24.7397C47.6465 24.4033 47.9522 24.1137 48.3015 23.8846C48.8483 23.466 49.466 22.9914 49.656 22.2831C49.8379 21.6037 49.56 20.9267 49.2911 20.2735C49.096 19.8825 48.9731 19.4595 48.9282 19.0249C48.9732 18.5903 49.0961 18.1674 49.2911 17.7764C49.561 17.1232 49.8379 16.4481 49.656 15.7668C49.4664 15.0584 48.8479 14.5838 48.3015 14.1653C47.9522 13.9361 47.6465 13.6466 47.3989 13.3101C47.2257 12.9196 47.1237 12.5013 47.0977 12.0749C47.0031 11.3689 46.9033 10.6364 46.3955 10.1271C45.8881 9.61824 45.1568 9.52009 44.4496 9.42515L44.4476 9.4249C44.022 9.39934 43.6044 9.29748 43.2148 9.12417C42.8784 8.87648 42.5888 8.57081 42.3596 8.22151C41.9411 7.67468 41.467 7.05707 40.7577 6.86704C40.0792 6.68508 39.4018 6.96348 38.749 7.23238C38.3578 7.42724 37.9347 7.55003 37.5 7.59487C37.0654 7.55157 36.6422 7.4304 36.2505 7.23713C35.5978 6.96728 34.9222 6.68841 34.2414 6.87227C33.5326 7.06182 33.058 7.68038 32.6399 8.22673C32.4107 8.57599 32.1211 8.88164 31.7847 9.12939C31.3943 9.30293 30.976 9.40495 30.5495 9.4306C29.8431 9.52561 29.1138 9.62538 28.6017 10.1328C28.0931 10.6366 27.9959 11.3619 27.9015 12.0656L27.8995 12.0806C27.8735 12.5061 27.7717 12.9234 27.5988 13.313C27.3512 13.6503 27.0456 13.9409 26.6961 14.171C26.1493 14.5895 25.5317 15.0637 25.3416 15.7725C25.1597 16.4514 25.4376 17.1289 25.7065 17.7816C25.9015 18.1726 26.0244 18.5956 26.0695 19.0302C26.0245 19.4649 25.9015 19.888 25.7065 20.2792C25.4367 20.9319 25.1597 21.6075 25.3416 22.2883C25.5312 22.9971 26.1498 23.4712 26.6961 23.8898C27.0452 24.1192 27.3508 24.4087 27.5988 24.7449C27.7716 25.1347 27.8736 25.5522 27.9 25.9778C27.9945 26.6861 28.0943 27.4192 28.6021 27.928C29.0424 28.3691 29.6513 28.5014 30.2667 28.5907L26.5165 37.0757C26.4775 37.1639 26.4663 37.2618 26.4843 37.3564C26.5022 37.4511 26.5486 37.5381 26.6171 37.6058C26.6857 37.6735 26.7732 37.7188 26.8681 37.7356C26.963 37.7525 27.0607 37.74 27.1484 37.7L30.8265 36.0215L32.3567 39.7699C32.392 39.8563 32.4518 39.9304 32.5289 39.9829C32.6059 40.0355 32.6967 40.0642 32.79 40.0655ZM37.5 29.51C37.6824 29.5227 37.8633 29.5469 38.0419 29.5823C38.0767 29.5857 38.1113 29.5929 38.145 29.6041C38.4786 29.6787 38.8029 29.7927 39.111 29.9443C39.5372 30.1857 40.0241 30.2987 40.513 30.2697C40.9097 30.1638 41.2479 29.7224 41.6057 29.2554C41.9064 28.8031 42.292 28.4135 42.7411 28.1081C43.2366 27.8667 43.7742 27.7238 44.3241 27.6871C44.8242 27.6831 45.3121 27.533 45.728 27.2553C46.0057 26.8394 46.1559 26.3515 46.1603 25.8514C46.1967 25.3017 46.3394 24.7643 46.5803 24.2689C46.8858 23.8195 47.2756 23.4335 47.7281 23.1325L47.7298 23.1312C48.1962 22.7735 48.6361 22.436 48.7424 22.0398C48.7708 21.5509 48.6578 21.0642 48.417 20.6378C48.1689 20.1343 48.0212 19.5873 47.9823 19.0273C48.0214 18.4674 48.169 17.9203 48.417 17.4168C48.6581 16.9905 48.7711 16.5037 48.7424 16.0148C48.6361 15.6186 48.1962 15.2811 47.7298 14.9234L47.7281 14.9221C47.2757 14.6211 46.886 14.2354 46.5803 13.7862C46.3392 13.2908 46.1966 12.7534 46.1603 12.2037C46.1556 11.7034 46.0052 11.2154 45.7275 10.7993C45.3116 10.5216 44.8237 10.3715 44.3236 10.3675C43.7738 10.3302 43.2364 10.1868 42.7411 9.94511C42.292 9.63955 41.9064 9.24974 41.6057 8.79731C41.2475 8.3303 40.9092 7.88942 40.513 7.783C40.0242 7.75489 39.5377 7.86803 39.1115 8.10891C38.6076 8.35722 38.0603 8.50533 37.5 8.54504C36.94 8.50587 36.3928 8.3584 35.889 8.11081C35.5154 7.9246 35.1119 7.80575 34.697 7.75972C34.6263 7.75912 34.5559 7.76774 34.4875 7.78538C34.0908 7.89132 33.7525 8.33268 33.3948 8.79968C33.0936 9.25123 32.7079 9.6402 32.2589 9.94511C31.7634 10.1863 31.2258 10.3291 30.6759 10.3656C30.1758 10.3701 29.688 10.5204 29.272 10.7979C28.9941 11.2137 28.8439 11.7017 28.8397 12.2018C28.8032 12.7514 28.6606 13.2888 28.4197 13.7843C28.114 14.2335 27.7243 14.6192 27.2719 14.9202C26.8049 15.2784 26.364 15.6167 26.2576 16.0129C26.2292 16.5018 26.3422 16.9885 26.583 17.4149C26.831 17.9184 26.9786 18.4655 27.0177 19.0254C26.9788 19.5854 26.8311 20.1324 26.583 20.6359C26.342 21.0624 26.229 21.5493 26.2576 22.0384C26.3639 22.4346 26.8038 22.772 27.2702 23.1298L27.2719 23.1311C27.7243 23.4321 28.114 23.8178 28.4197 24.267C28.6608 24.7624 28.8034 25.2998 28.8397 25.8495C28.8444 26.3497 28.9948 26.8377 29.2725 27.2539C29.6885 27.5313 30.1764 27.6814 30.6764 27.6857C31.2261 27.7222 31.7635 27.865 32.2589 28.1062C32.7082 28.4115 33.0939 28.8013 33.3943 29.254L33.3964 29.2567C33.7539 29.7222 34.0916 30.1621 34.487 30.2678C34.9757 30.2956 35.4621 30.1827 35.8885 29.9424C36.1997 29.7897 36.5274 29.6754 36.8644 29.6012C36.8927 29.5925 36.9215 29.5865 36.9505 29.5832C37.1316 29.5472 37.3151 29.5227 37.5 29.51ZM40.7586 31.1828C40.1202 31.3541 39.4881 31.1213 38.8743 30.8694L42.1838 38.3746L43.4784 35.2044C43.5026 35.1451 43.5385 35.0913 43.584 35.0463C43.6295 35.0013 43.6836 34.9659 43.7431 34.9423C43.8026 34.9187 43.8663 34.9073 43.9303 34.9089C43.9943 34.9105 44.0573 34.9251 44.1155 34.9516L47.1086 36.3166L43.7577 28.7349C43.5724 28.7837 43.391 28.8475 43.2153 28.9257C42.8789 29.1734 42.5893 29.4791 42.3601 29.8284C41.942 30.3742 41.4674 30.9933 40.7586 31.1828ZM32.8166 38.3746L36.1194 30.8848C35.6704 31.0872 35.189 31.2096 34.697 31.246C34.5435 31.2467 34.3906 31.2271 34.2423 31.1876C33.533 30.9975 33.0589 30.3799 32.6404 29.8336C32.4114 29.4841 32.1218 29.1785 31.7852 28.9309C31.6086 28.8524 31.4263 28.7886 31.2401 28.7398L27.8919 36.3166L30.8849 34.9516C30.9431 34.9251 31.0062 34.9105 31.0701 34.9089C31.1341 34.9073 31.1978 34.9187 31.2573 34.9423C31.3168 34.9659 31.3709 35.0013 31.4164 35.0463C31.4619 35.0913 31.4978 35.1451 31.522 35.2044L32.8166 38.3746ZM32.9952 25.7693C34.3287 26.6602 35.8964 27.1356 37.5 27.1356C39.6497 27.133 41.7105 26.278 43.2305 24.7579C44.7505 23.2378 45.6054 21.1769 45.6078 19.0273C45.6078 17.4236 45.1323 15.8559 44.2413 14.5225C43.3503 13.1891 42.084 12.1499 40.6023 11.5362C39.1207 10.9225 37.4904 10.762 35.9175 11.0749C34.3447 11.3878 32.8999 12.16 31.766 13.294C30.632 14.4281 29.8598 15.8729 29.547 17.4457C29.2342 19.0186 29.3949 20.6489 30.0086 22.1305C30.6224 23.6121 31.6617 24.8784 32.9952 25.7693ZM33.523 13.0758C34.7002 12.2893 36.0843 11.8696 37.5 11.8697C39.3977 11.8718 41.217 12.6266 42.5589 13.9684C43.9007 15.3103 44.6555 17.1296 44.6577 19.0273C44.6577 20.4431 44.238 21.8271 43.4515 23.0043C42.665 24.1815 41.5471 25.0991 40.2391 25.6409C38.9311 26.1827 37.4918 26.3245 36.1032 26.0483C34.7146 25.7722 33.4391 25.0904 32.438 24.0893C31.4369 23.0882 30.7552 21.8127 30.479 20.4241C30.2028 19.0355 30.3446 17.5962 30.8864 16.2883C31.4283 14.9803 32.3458 13.8623 33.523 13.0758ZM39.8778 23.2047C39.9458 23.2407 40.0217 23.2594 40.0987 23.2593H40.0991C40.1683 23.2593 40.2366 23.2442 40.2993 23.215C40.362 23.1858 40.4176 23.1433 40.4622 23.0904C40.5067 23.0375 40.5392 22.9755 40.5573 22.9088C40.5755 22.842 40.5788 22.7721 40.5671 22.704L40.1129 20.0568L42.0365 18.1816C42.1001 18.1197 42.145 18.0413 42.1662 17.9552C42.1875 17.8691 42.1842 17.7787 42.1568 17.6944C42.1293 17.61 42.0788 17.5351 42.011 17.4779C41.9431 17.4208 41.8607 17.3838 41.7729 17.3711L39.1148 16.9854L37.9271 14.5767C37.8833 14.5027 37.821 14.4414 37.7464 14.3989C37.6718 14.3563 37.5873 14.3339 37.5014 14.3339C37.4154 14.3339 37.331 14.3563 37.2564 14.3989C37.1817 14.4414 37.1194 14.5027 37.0757 14.5767L35.888 16.9854L33.2299 17.3711C33.1421 17.3838 33.0596 17.4208 32.9918 17.4779C32.9239 17.5351 32.8734 17.61 32.846 17.6944C32.8185 17.7787 32.8153 17.8691 32.8365 17.9552C32.8578 18.0413 32.9027 18.1197 32.9662 18.1816L34.8898 20.0568L34.4357 22.704C34.4208 22.7913 34.4305 22.881 34.4639 22.963C34.4973 23.0451 34.553 23.1161 34.6246 23.1682C34.6963 23.2203 34.781 23.2513 34.8694 23.2578C34.9577 23.2642 35.0461 23.2458 35.1245 23.2047L37.5 21.9548L39.8778 23.2047ZM37.7209 20.9975C37.6527 20.9618 37.5769 20.9432 37.5 20.9433C37.4233 20.944 37.348 20.9633 37.2805 20.9994L35.5336 21.9177L35.8661 19.9732C35.8791 19.8973 35.8735 19.8193 35.8496 19.7461C35.8258 19.6728 35.7845 19.6065 35.7293 19.5527L34.3169 18.175L36.269 17.8899C36.3453 17.8788 36.4177 17.8493 36.48 17.8039C36.5424 17.7586 36.5927 17.6988 36.6268 17.6296L37.5 15.8604L38.3746 17.6291C38.4086 17.6983 38.459 17.7581 38.5213 17.8035C38.5836 17.8488 38.656 17.8783 38.7323 17.8895L40.6844 18.1745L39.272 19.5523C39.2168 19.606 39.1755 19.6723 39.1517 19.7456C39.1279 19.8188 39.1222 19.8968 39.1352 19.9727L39.4678 21.9172L37.7209 20.9975Z" fill="white"/>
</svg>
