<svg width="57" height="57" viewBox="0 0 57 57" fill="none" xmlns="http://www.w3.org/2000/svg">
<path d="M28.5 0C12.7846 0 0 12.7846 0 28.5C0 44.2154 12.7846 57 28.5 57C44.2154 57 57 44.2154 57 28.5C57 12.7846 44.2154 0 28.5 0ZM37.3042 30.1792L25.4291 42.0541C24.966 42.5172 24.358 42.75 23.75 42.75C23.142 42.75 22.5339 42.5172 22.0708 42.0541C21.1422 41.1255 21.1422 39.6245 22.0708 38.6959L32.2668 28.5L22.0709 18.3041C21.1423 17.3755 21.1423 15.8745 22.0709 14.9459C22.9995 14.0173 24.5005 14.0173 25.4291 14.9459L37.3042 26.8209C38.2327 27.7495 38.2327 29.2505 37.3042 30.1792Z" fill="#FFCB3F"/>
</svg>
